<?xml version="1.0" encoding="UTF-8" standalone="no"?>
<!DOCTYPE svg PUBLIC "-//W3C//DTD SVG 1.1//EN" "http://www.w3.org/Graphics/SVG/1.1/DTD/svg11.dtd">
<svg width="100%" height="100%" viewBox="0 0 72 72" version="1.1" xmlns="http://www.w3.org/2000/svg" xmlns:xlink="http://www.w3.org/1999/xlink" xml:space="preserve" xmlns:serif="http://www.serif.com/" style="fill-rule:evenodd;clip-rule:evenodd;stroke-miterlimit:10;">
    <g id="color">
        <rect x="14.689" y="14.805" width="23.904" height="14.051" style="fill:rgb(71,234,221);"/>
        <path d="M27.956,13.237L27.956,30.423C27.872,30.678 27.625,30.846 27.358,30.83L18.215,30.83C17.957,30.811 17.729,30.656 17.617,30.423L17.617,13.237C17.701,12.982 17.947,12.815 18.215,12.831L27.358,12.831C27.615,12.849 27.844,13.004 27.956,13.237Z" style="fill:rgb(208,207,206);fill-rule:nonzero;"/>
        <ellipse cx="44.881" cy="49.88" rx="9.681" ry="5.806" style="fill:rgb(76,95,255);stroke:rgb(76,102,182);stroke-width:1.5px;"/>
        <path d="M58.088,40.59L58.088,40.938L56.235,40.938C56.204,40.636 55.941,40.407 55.638,40.416L36.575,40.416C36.271,40.407 36.008,40.636 35.977,40.938L30.658,40.938L30.658,41.345L30.3,41.345L30.3,59.111L35.977,59.111C36.003,59.426 36.26,59.675 36.575,59.692L55.638,59.692C55.961,59.696 56.23,59.434 56.235,59.111L59.821,59.111L59.821,40.59L58.088,40.59ZM58.088,55.222L57.849,55.222C56.584,55.192 55.501,56.167 55.399,57.428L34.722,57.428C34.628,56.186 33.577,55.216 32.332,55.222L32.093,55.222L32.093,44.828L32.332,44.828C33.584,44.854 34.648,43.872 34.722,42.622L55.339,42.622C55.442,43.883 56.524,44.858 57.789,44.828L58.028,44.828L58.028,55.221L58.088,55.222Z" style="fill:rgb(76,95,255);fill-rule:nonzero;"/>
        <rect x="35.917" y="56.847" width="18.585" height="1.684" style="fill:rgb(76,95,255);"/>
        <rect x="34.423" y="41.519" width="18.585" height="1.684" style="fill:rgb(76,95,255);"/>
        <path d="M50.08,41.577L50.08,58.763C49.996,59.018 49.75,59.185 49.482,59.169L40.339,59.169C40.082,59.151 39.853,58.996 39.742,58.763L39.742,41.402C39.825,41.148 40.072,40.98 40.339,40.996L49.483,40.996C49.74,41.014 49.968,41.17 50.08,41.402L50.08,41.577Z" style="fill:rgb(208,207,206);fill-rule:nonzero;"/>
        <ellipse cx="33.214" cy="20.727" rx="3.526" ry="3.426" style="fill:white;"/>
    </g>
    <g id="line">
        <path d="M48.485,26.717L46.125,22.734L50.225,20.441" style="fill:none;fill-rule:nonzero;stroke:white;stroke-width:1.5px;stroke-linecap:round;stroke-linejoin:round;stroke-miterlimit:4;"/>
        <path d="M47.072,22.888C52.564,24.275 56.786,28.717 57.894,34.272" style="fill:none;fill-rule:nonzero;stroke:white;stroke-width:1.5px;stroke-linecap:round;stroke-linejoin:round;stroke-miterlimit:4;"/>
        <path d="M23.094,45.255L25.453,49.238L21.354,51.53" style="fill:none;fill-rule:nonzero;stroke:white;stroke-width:1.5px;stroke-linecap:round;stroke-linejoin:round;stroke-miterlimit:4;"/>
        <path d="M24.507,49.084C19.015,47.697 14.792,43.255 13.685,37.7" style="fill:none;fill-rule:nonzero;stroke:white;stroke-width:1.5px;stroke-linecap:round;stroke-linejoin:round;stroke-miterlimit:4;"/>
        <ellipse cx="33.214" cy="20.727" rx="3.526" ry="3.426" style="fill:none;stroke:black;stroke-width:1.5px;"/>
        <path d="M27.956,13.237L27.956,30.423C27.872,30.678 27.625,30.846 27.358,30.83L18.215,30.83C17.957,30.811 17.729,30.656 17.617,30.423L17.617,13.237C17.701,12.982 17.947,12.815 18.215,12.831L27.358,12.831C27.615,12.849 27.844,13.004 27.956,13.237Z" style="fill:none;fill-rule:nonzero;stroke:black;stroke-width:1.5px;stroke-linecap:round;stroke-linejoin:round;stroke-miterlimit:4;"/>
        <path d="M21.442,21.83L24.37,21.83" style="fill:none;fill-rule:nonzero;stroke:black;stroke-width:1.5px;stroke-linecap:round;stroke-linejoin:round;stroke-miterlimit:4;"/>
        <path d="M14.928,30.888L12.777,30.888C12.763,30.889 12.749,30.889 12.735,30.889C12.43,30.889 12.179,30.638 12.179,30.333C12.179,30.324 12.179,30.316 12.179,30.307L12.179,13.353C12.179,13.345 12.179,13.336 12.179,13.328C12.179,13.022 12.43,12.771 12.735,12.771C12.749,12.771 12.763,12.771 12.777,12.772L14.928,12.772" style="fill:none;fill-rule:nonzero;stroke:black;stroke-width:1.5px;stroke-linecap:round;stroke-linejoin:round;stroke-miterlimit:4;"/>
        <path d="M30.645,12.831L41.043,12.773C41.057,12.771 41.071,12.771 41.084,12.771C41.39,12.771 41.641,13.022 41.641,13.328C41.641,13.336 41.641,13.345 41.641,13.353L41.641,30.307C41.641,30.316 41.641,30.324 41.641,30.333C41.641,30.638 41.39,30.889 41.084,30.889C41.071,30.889 41.057,30.889 41.043,30.888L30.645,30.83" style="fill:none;fill-rule:nonzero;stroke:black;stroke-width:1.5px;stroke-linecap:round;stroke-linejoin:round;stroke-miterlimit:4;"/>
        <path d="M30.645,15.269L38.892,15.269L38.892,28.391L30.645,28.391" style="fill:none;fill-rule:nonzero;stroke:black;stroke-width:1.5px;stroke-linecap:round;stroke-linejoin:round;stroke-miterlimit:4;"/>
        <path d="M14.928,28.507L14.928,15.269" style="fill:none;fill-rule:nonzero;stroke:black;stroke-width:1.5px;stroke-linecap:round;stroke-linejoin:round;stroke-miterlimit:4;"/>
        <path d="M52.471,42.68L55.399,42.68C55.501,43.941 56.584,44.916 57.849,44.886L58.088,44.886L58.088,55.279L57.849,55.279C56.584,55.25 55.501,56.225 55.399,57.486L52.471,57.486M37.591,57.427L34.722,57.427C34.628,56.186 33.577,55.216 32.332,55.221L32.093,55.221L32.093,44.828L32.332,44.828C33.584,44.854 34.648,43.872 34.722,42.622L37.351,42.622" style="fill:none;fill-rule:nonzero;stroke:black;stroke-width:1.5px;stroke-linecap:round;stroke-linejoin:round;stroke-miterlimit:4;"/>
        <path d="M50.08,41.577L50.08,58.763C49.996,59.018 49.75,59.185 49.482,59.169L40.339,59.169C40.082,59.151 39.853,58.996 39.742,58.763L39.742,41.402C39.825,41.148 40.072,40.98 40.339,40.996L49.483,40.996C49.74,41.014 49.968,41.17 50.08,41.402L50.08,41.577Z" style="fill:none;fill-rule:nonzero;stroke:black;stroke-width:1.5px;stroke-linecap:round;stroke-linejoin:round;stroke-miterlimit:4;"/>
        <path d="M37.59,59.111L30.897,59.111C30.883,59.112 30.87,59.113 30.856,59.113C30.55,59.113 30.299,58.862 30.299,58.556C30.299,58.548 30.299,58.539 30.3,58.531L30.3,41.577C30.299,41.568 30.299,41.56 30.299,41.551C30.299,41.246 30.55,40.994 30.856,40.994C30.87,40.994 30.883,40.995 30.897,40.996L37.351,40.996" style="fill:none;fill-rule:nonzero;stroke:black;stroke-width:1.5px;stroke-linecap:round;stroke-linejoin:round;stroke-miterlimit:4;"/>
        <path d="M52.351,40.996L59.223,40.996C59.237,40.995 59.251,40.994 59.265,40.994C59.57,40.994 59.821,41.246 59.821,41.551C59.821,41.56 59.821,41.568 59.821,41.577L59.821,58.531C59.821,58.539 59.821,58.548 59.821,58.556C59.821,58.862 59.57,59.113 59.265,59.113C59.251,59.113 59.237,59.112 59.223,59.111L52.351,59.111" style="fill:none;fill-rule:nonzero;stroke:black;stroke-width:1.5px;stroke-linecap:round;stroke-linejoin:round;stroke-miterlimit:4;"/>
        <path d="M51.753,45.757C53.486,46.802 54.622,48.254 54.622,49.88C54.622,51.505 53.486,52.957 51.753,54.002" style="fill:none;fill-rule:nonzero;stroke:black;stroke-width:1.5px;stroke-linecap:round;"/>
        <path d="M37.351,53.479C36.097,52.67 35.298,51.311 35.2,49.821C35.324,48.201 36.243,46.743 37.65,45.931" style="fill:none;fill-rule:nonzero;stroke:black;stroke-width:1.5px;stroke-linecap:round;"/>
        <path d="M44.881,47.557L44.881,46.512" style="fill:none;fill-rule:nonzero;stroke:black;stroke-width:1.5px;stroke-linecap:round;stroke-linejoin:round;stroke-miterlimit:4;"/>
        <path d="M44.881,52.957L44.881,51.912" style="fill:none;fill-rule:nonzero;stroke:black;stroke-width:1.5px;stroke-linecap:round;stroke-linejoin:round;stroke-miterlimit:4;"/>
    </g>
</svg>
